<?xml version="1.0" encoding="utf-8"?>
<!-- Generator: Adobe Illustrator 16.0.0, SVG Export Plug-In . SVG Version: 6.00 Build 0)  -->
<!DOCTYPE svg PUBLIC "-//W3C//DTD SVG 1.1//EN" "http://www.w3.org/Graphics/SVG/1.1/DTD/svg11.dtd">
<svg version="1.1" id="Calque_1" xmlns="http://www.w3.org/2000/svg" xmlns:xlink="http://www.w3.org/1999/xlink" x="0px" y="0px"
	 width="171.587px" height="59.46px" viewBox="0 0 171.587 59.46" enable-background="new 0 0 171.587 59.46" xml:space="preserve">
<g>
	<defs>
		<rect id="SVGID_1_" width="171.587" height="59.46"/>
	</defs>
	<clipPath id="SVGID_2_">
		<use xlink:href="#SVGID_1_"  overflow="visible"/>
	</clipPath>
	<path clip-path="url(#SVGID_2_)" fill="#0071BA" d="M52.795,29.74c0-2.074,0.179-4.019,0.537-5.825
		c0.356-1.809,0.899-3.59,1.627-5.343c0.73-1.753,1.631-3.509,2.702-5.269c0.647-1.073,1.22-1.82,1.629-2.32
		c0.426-0.516,0.873-1.062,1.492-1.062c0.676,0,1.012,0.185,1.012,0.557c0,0.123-0.318,0.869-0.949,2.238
		c-0.633,1.368-1.226,2.801-1.783,4.299c-0.558,1.499-1.074,3.369-1.547,5.61c-0.476,2.24-0.712,4.611-0.712,7.114
		c0,2.476,0.235,4.819,0.702,7.034c0.466,2.211,1.128,4.129,1.729,5.75c0.596,1.624,1.065,3.078,1.662,4.364
		c0.598,1.285,0.898,1.983,0.898,2.092c0,0.372-0.336,0.558-1.012,0.558c-0.63,0-1.066-0.633-1.492-1.113
		c-0.425-0.481-0.968-1.251-1.629-2.312c-1.086-1.812-1.982-3.562-2.69-5.247c-0.71-1.685-1.248-3.435-1.62-5.25
		C52.979,33.804,52.795,31.844,52.795,29.74"/>
	<path clip-path="url(#SVGID_2_)" fill="#1D1D1B" d="M69.031,40.087h-0.907l-1.755,5.197h0.678l0.421-1.248h2.21l0.428,1.248h0.679
		L69.031,40.087z M69.505,43.451h-1.857l0.929-2.88L69.505,43.451"/>
	<path clip-path="url(#SVGID_2_)" fill="#1D1D1B" d="M72.278,41.484H71.62v3.8h0.658V41.484z M72.278,39.931H71.62v0.944h0.658
		V39.931z"/>
	<polygon clip-path="url(#SVGID_2_)" fill="#1D1D1B" points="73.738,45.284 74.651,43.872 75.571,45.284 76.258,45.284 
		74.999,43.373 76.234,41.484 75.555,41.484 74.651,42.881 73.743,41.484 73.066,41.484 74.29,43.373 73.044,45.284 	"/>
	<polygon clip-path="url(#SVGID_2_)" fill="#1D1D1B" points="82.907,44.612 83.812,44.612 85.14,41.07 85.242,45.284 85.89,45.284 
		85.71,40.087 84.859,40.087 83.361,44.106 81.863,40.087 81.011,40.087 80.832,45.284 81.479,45.284 81.581,41.07 	"/>
	<path clip-path="url(#SVGID_2_)" fill="#1D1D1B" d="M89.483,42.638c0-0.811-0.359-1.231-1.445-1.231
		c-0.405,0-0.887,0.068-1.248,0.164l0.072,0.521c0.297-0.062,0.771-0.125,1.139-0.125c0.615,0,0.826,0.164,0.826,0.642v0.593h-1.014
		c-0.764,0-1.164,0.28-1.164,1.068c0,0.673,0.297,1.093,1.008,1.093c0.461,0,0.896-0.125,1.232-0.359l0.041,0.282h0.553V42.638
		 M88.827,44.488c-0.287,0.187-0.654,0.312-0.983,0.312c-0.468,0-0.539-0.156-0.539-0.546c0-0.382,0.149-0.506,0.556-0.506h0.967
		V44.488"/>
	<path clip-path="url(#SVGID_2_)" fill="#1D1D1B" d="M92.164,41.406c-0.376,0.155-0.765,0.39-1.046,0.607l-0.038-0.529h-0.57v3.8
		h0.655v-2.622c0.312-0.219,0.727-0.483,1.085-0.655L92.164,41.406"/>
	<path clip-path="url(#SVGID_2_)" fill="#1D1D1B" d="M95.236,44.263c0-0.757-0.086-0.89-1.177-1.162
		c-0.642-0.157-0.65-0.236-0.65-0.657c0-0.343,0.079-0.477,0.643-0.477c0.31,0,0.73,0.047,1.051,0.11l0.048-0.539
		c-0.312-0.086-0.708-0.132-1.077-0.132c-0.999,0-1.309,0.318-1.309,1.022c0,0.787,0.084,0.982,1.028,1.217
		c0.767,0.187,0.796,0.235,0.796,0.641s-0.101,0.515-0.701,0.515c-0.33,0-0.758-0.062-1.088-0.157l-0.084,0.515
		c0.305,0.118,0.821,0.203,1.209,0.203C95.011,45.361,95.236,45.003,95.236,44.263"/>
	<path clip-path="url(#SVGID_2_)" fill="#1D1D1B" d="M96.669,43.957v-0.318h2.265v-0.796c0-0.789-0.308-1.437-1.431-1.437
		c-1.131,0-1.49,0.632-1.49,1.42v1.14c0,0.859,0.381,1.396,1.507,1.396c0.476,0,0.983-0.085,1.341-0.218l-0.086-0.522
		c-0.412,0.108-0.825,0.18-1.2,0.18C96.831,44.801,96.669,44.558,96.669,43.957 M96.669,42.779c0-0.529,0.219-0.827,0.834-0.827
		c0.617,0,0.797,0.298,0.797,0.827v0.312h-1.631V42.779"/>
	<path clip-path="url(#SVGID_2_)" fill="#1D1D1B" d="M100.469,41.484h-0.653v3.8h0.653V41.484z M100.469,39.931h-0.653v0.944h0.653
		V39.931z"/>
	<polygon clip-path="url(#SVGID_2_)" fill="#1D1D1B" points="102.351,45.284 102.351,39.837 101.693,39.931 101.693,45.284 	"/>
	<polygon clip-path="url(#SVGID_2_)" fill="#1D1D1B" points="104.249,45.284 104.249,39.837 103.593,39.931 103.593,45.284 	"/>
	<path clip-path="url(#SVGID_2_)" fill="#1D1D1B" d="M105.729,43.957v-0.318h2.264v-0.796c0-0.789-0.305-1.437-1.428-1.437
		c-1.131,0-1.49,0.632-1.49,1.42v1.14c0,0.859,0.381,1.396,1.507,1.396c0.476,0,0.981-0.085,1.341-0.218l-0.088-0.522
		c-0.412,0.108-0.826,0.18-1.199,0.18C105.892,44.801,105.729,44.558,105.729,43.957 M105.729,42.779
		c0-0.529,0.219-0.827,0.836-0.827c0.615,0,0.797,0.298,0.797,0.827v0.312h-1.633V42.779"/>
	<path clip-path="url(#SVGID_2_)" fill="#1D1D1B" d="M113.464,40.087v3.699c0,0.64-0.351,0.975-1.171,0.975
		c-0.819,0-1.169-0.335-1.169-0.975v-3.699h-0.674v3.737c0,0.851,0.492,1.538,1.843,1.538s1.841-0.688,1.841-1.538v-3.737H113.464"
		/>
	<path clip-path="url(#SVGID_2_)" fill="#1D1D1B" d="M118.218,45.284v-2.91c0-0.586-0.22-0.968-0.828-0.968
		c-0.451,0-1.107,0.201-1.529,0.405l-0.062-0.327h-0.529v3.8h0.657v-2.872c0.403-0.21,0.988-0.383,1.267-0.383
		c0.242,0,0.367,0.102,0.367,0.353v2.902H118.218"/>
	<path clip-path="url(#SVGID_2_)" fill="#1D1D1B" d="M119.961,41.484h-0.654v3.8h0.654V41.484z M119.961,39.931h-0.654v0.944h0.654
		V39.931z"/>
	<polygon clip-path="url(#SVGID_2_)" fill="#1D1D1B" points="122.22,44.746 121.174,41.484 120.526,41.484 121.784,45.284 
		122.656,45.284 123.914,41.484 123.269,41.484 	"/>
	<path clip-path="url(#SVGID_2_)" fill="#1D1D1B" d="M124.933,43.957v-0.318h2.264v-0.796c0-0.789-0.305-1.437-1.428-1.437
		c-1.131,0-1.491,0.632-1.491,1.42v1.14c0,0.859,0.382,1.396,1.509,1.396c0.472,0,0.98-0.085,1.338-0.218l-0.086-0.522
		c-0.414,0.108-0.824,0.18-1.199,0.18C125.099,44.801,124.933,44.558,124.933,43.957 M124.933,42.779
		c0-0.529,0.218-0.827,0.836-0.827c0.615,0,0.796,0.298,0.796,0.827v0.312h-1.632V42.779"/>
	<path clip-path="url(#SVGID_2_)" fill="#1D1D1B" d="M129.755,41.406c-0.376,0.155-0.766,0.39-1.048,0.607l-0.038-0.529h-0.57v3.8
		h0.655v-2.622c0.313-0.219,0.728-0.483,1.086-0.655L129.755,41.406"/>
	<path clip-path="url(#SVGID_2_)" fill="#1D1D1B" d="M132.749,44.263c0-0.757-0.086-0.89-1.176-1.162
		c-0.643-0.157-0.651-0.236-0.651-0.657c0-0.343,0.08-0.477,0.642-0.477c0.312,0,0.734,0.047,1.053,0.11l0.047-0.539
		c-0.313-0.086-0.709-0.132-1.075-0.132c-1,0-1.313,0.318-1.313,1.022c0,0.787,0.088,0.982,1.031,1.217
		c0.764,0.187,0.797,0.235,0.797,0.641s-0.102,0.515-0.701,0.515c-0.33,0-0.76-0.062-1.088-0.157l-0.086,0.515
		c0.307,0.118,0.822,0.203,1.211,0.203C132.522,45.361,132.749,45.003,132.749,44.263"/>
	<path clip-path="url(#SVGID_2_)" fill="#1D1D1B" d="M134.346,41.484h-0.653v3.8h0.653V41.484z M134.346,39.931h-0.653v0.944h0.653
		V39.931z"/>
	<path clip-path="url(#SVGID_2_)" fill="#1D1D1B" d="M137.368,44.714c-0.238,0.062-0.426,0.095-0.604,0.095
		c-0.353,0-0.392-0.142-0.392-0.421v-2.358h1.022l0.056-0.545h-1.078v-1.03l-0.656,0.093v0.938h-0.672v0.545h0.672v2.466
		c0,0.633,0.307,0.866,0.945,0.866c0.281,0,0.561-0.054,0.797-0.139L137.368,44.714"/>
	<path clip-path="url(#SVGID_2_)" fill="#1D1D1B" d="M138.692,43.957v-0.318h2.266v-0.796c0-0.789-0.307-1.437-1.43-1.437
		c-1.131,0-1.488,0.631-1.488,1.42v1.14c0,0.858,0.379,1.396,1.506,1.396c0.473,0,0.981-0.085,1.342-0.218l-0.088-0.522
		c-0.412,0.108-0.827,0.18-1.202,0.18C138.857,44.801,138.692,44.558,138.692,43.957 M138.692,42.78
		c0-0.531,0.221-0.828,0.836-0.828c0.617,0,0.797,0.297,0.797,0.828v0.311h-1.633V42.78 M139.304,41.022
		c0.396-0.211,0.727-0.413,1.084-0.678l-0.282-0.438c-0.272,0.227-0.677,0.485-1.069,0.711L139.304,41.022"/>
	<path clip-path="url(#SVGID_2_)" fill="#FAB900" d="M79.917,44.078l-1.031-0.594c0,0-0.019-0.011-0.047-0.026
		c0.016-0.01,0.031-0.019,0.047-0.027l1.031-0.594c0.044-0.026,0.057-0.069,0.066-0.104c0.011-0.035,0.011-0.073,0.011-0.104
		c0-0.044-0.005-0.076-0.005-0.078l-0.002-0.026l-0.019-0.016c-0.007-0.001-0.109-0.09-0.223-0.096
		c-0.019,0-0.042,0.004-0.064,0.017l-1.028,0.595c-0.016,0.01-0.032,0.019-0.049,0.028v-0.057v-2.158
		c-0.006-0.087-0.068-0.123-0.115-0.155c-0.048-0.03-0.095-0.051-0.095-0.053l-0.026-0.01l-0.022,0.01
		c-0.005,0.002-0.049,0.022-0.096,0.053c-0.045,0.032-0.108,0.068-0.113,0.155v2.158v0.057c-0.017-0.01-0.032-0.019-0.049-0.028
		l-1.029-0.595c-0.022-0.013-0.044-0.017-0.064-0.017c-0.114,0.006-0.216,0.096-0.22,0.096l-0.022,0.016l-0.004,0.024
		c0,0.003-0.002,0.036-0.002,0.078c0,0.032,0.002,0.07,0.01,0.105c0.01,0.035,0.025,0.078,0.069,0.104l1.028,0.594
		c0.016,0.009,0.031,0.018,0.047,0.027c-0.028,0.016-0.047,0.026-0.047,0.026l-1.028,0.594c-0.044,0.027-0.059,0.067-0.069,0.104
		c-0.008,0.035-0.01,0.073-0.01,0.104c0,0.044,0.002,0.077,0.002,0.078l0.004,0.025l0.022,0.016c0.007,0.002,0.106,0.091,0.22,0.096
		h0.002c0.018,0,0.04-0.005,0.062-0.017l1.029-0.594c0.001,0,0.02-0.011,0.049-0.027v0.055v1.189
		c0.005,0.086,0.068,0.121,0.114,0.155c0.049,0.032,0.095,0.05,0.097,0.05l0.024,0.01l0.022-0.01c0.003,0,0.048-0.018,0.095-0.05
		c0.047-0.033,0.109-0.07,0.115-0.155v-1.189v-0.054c0.028,0.016,0.047,0.026,0.047,0.026l1.03,0.594
		c0.022,0.014,0.045,0.017,0.064,0.017c0.114-0.005,0.216-0.094,0.223-0.096l0.019-0.016l0.002-0.025
		c0-0.001,0.005-0.034,0.005-0.078c0-0.03,0-0.068-0.011-0.104C79.973,44.147,79.96,44.105,79.917,44.078"/>
	<rect x="67.264" y="16.688" clip-path="url(#SVGID_2_)" fill="#04BAEE" width="0.964" height="7.461"/>
	<path clip-path="url(#SVGID_2_)" fill="#04BAEE" d="M74.364,24.15v-4.179c0-0.84-0.314-1.39-1.189-1.39
		c-0.649,0-1.591,0.291-2.196,0.582l-0.089-0.47h-0.762v5.456h0.942v-4.122c0.583-0.303,1.423-0.55,1.826-0.55
		c0.347,0,0.525,0.146,0.525,0.504v4.168H74.364"/>
	<path clip-path="url(#SVGID_2_)" fill="#04BAEE" d="M79.495,22.683c0-1.086-0.124-1.277-1.69-1.668
		c-0.92-0.226-0.929-0.338-0.929-0.941c0-0.494,0.113-0.684,0.917-0.684c0.447,0,1.053,0.066,1.511,0.157l0.067-0.773
		c-0.447-0.123-1.018-0.191-1.543-0.191c-1.434,0-1.882,0.46-1.882,1.469c0,1.132,0.123,1.412,1.477,1.748
		c1.098,0.269,1.142,0.335,1.142,0.918c0,0.582-0.145,0.737-1.009,0.737c-0.469,0-1.086-0.088-1.553-0.222l-0.126,0.738
		c0.438,0.168,1.178,0.291,1.738,0.291C79.173,24.262,79.495,23.747,79.495,22.683"/>
	<path clip-path="url(#SVGID_2_)" fill="#04BAEE" d="M83.746,23.332c-0.347,0.091-0.615,0.135-0.873,0.135
		c-0.504,0-0.561-0.202-0.561-0.605v-3.383h1.468l0.079-0.784h-1.547v-1.479l-0.941,0.135v1.344h-0.963v0.784h0.963v3.541
		c0,0.907,0.438,1.241,1.357,1.241c0.403,0,0.807-0.076,1.143-0.2L83.746,23.332"/>
	<path clip-path="url(#SVGID_2_)" fill="#04BAEE" d="M86.102,18.695h-0.943v5.456h0.943V18.695z M86.102,16.465h-0.943v1.355h0.943
		V16.465z"/>
	<path clip-path="url(#SVGID_2_)" fill="#04BAEE" d="M90.616,23.332c-0.346,0.091-0.615,0.135-0.873,0.135
		c-0.504,0-0.561-0.202-0.561-0.605v-3.383h1.468l0.079-0.784h-1.547v-1.479l-0.941,0.135v1.344h-0.962v0.784h0.962v3.541
		c0,0.907,0.438,1.241,1.355,1.241c0.404,0,0.809-0.076,1.145-0.2L90.616,23.332"/>
	<path clip-path="url(#SVGID_2_)" fill="#04BAEE" d="M91.974,18.695v4.179c0,0.839,0.313,1.387,1.188,1.387
		c0.65,0,1.591-0.29,2.196-0.582l0.089,0.473h0.763v-5.456h-0.942v4.122c-0.58,0.303-1.424,0.549-1.828,0.549
		c-0.344,0-0.523-0.146-0.523-0.504v-4.167H91.974"/>
	<path clip-path="url(#SVGID_2_)" fill="#04BAEE" d="M100.726,23.332c-0.348,0.091-0.616,0.135-0.872,0.135
		c-0.507,0-0.562-0.202-0.562-0.605v-3.383h1.469l0.076-0.784h-1.545v-1.479l-0.941,0.135v1.344h-0.963v0.784h0.963v3.541
		c0,0.907,0.435,1.241,1.354,1.241c0.404,0,0.808-0.076,1.144-0.2L100.726,23.332"/>
	<path clip-path="url(#SVGID_2_)" fill="#04BAEE" d="M108.868,16.689v5.31c0,0.918-0.503,1.401-1.679,1.401
		c-1.177,0-1.681-0.483-1.681-1.401v-5.31h-0.965v5.365c0,1.222,0.707,2.206,2.646,2.206c1.937,0,2.643-0.984,2.643-2.206v-5.365
		H108.868"/>
	<path clip-path="url(#SVGID_2_)" fill="#04BAEE" d="M115.868,24.15v-4.179c0-0.84-0.314-1.39-1.185-1.39
		c-0.653,0-1.595,0.291-2.197,0.582l-0.09-0.47h-0.763v5.456h0.941v-4.122c0.582-0.303,1.424-0.55,1.825-0.55
		c0.347,0,0.526,0.146,0.526,0.504v4.168H115.868"/>
	<path clip-path="url(#SVGID_2_)" fill="#04BAEE" d="M118.548,18.695h-0.939v5.456h0.939V18.695z M118.548,16.465h-0.939v1.355
		h0.939V16.465z"/>
	<polygon clip-path="url(#SVGID_2_)" fill="#04BAEE" points="121.964,23.378 120.466,18.694 119.536,18.694 121.339,24.15 
		122.594,24.15 124.396,18.694 123.467,18.694 	"/>
	<path clip-path="url(#SVGID_2_)" fill="#04BAEE" d="M126.036,22.246v-0.46h3.247v-1.143c0-1.131-0.437-2.062-2.05-2.062
		c-1.623,0-2.141,0.906-2.141,2.039v1.636c0,1.231,0.549,2.005,2.164,2.005c0.682,0,1.411-0.123,1.926-0.313l-0.123-0.75
		c-0.594,0.157-1.186,0.256-1.725,0.256C126.271,23.454,126.036,23.107,126.036,22.246 M126.036,20.554
		c0-0.762,0.312-1.188,1.197-1.188c0.886,0,1.144,0.426,1.144,1.188v0.449h-2.341V20.554"/>
	<path clip-path="url(#SVGID_2_)" fill="#04BAEE" d="M133.131,18.583c-0.536,0.224-1.097,0.56-1.501,0.874l-0.057-0.763h-0.816
		v5.456h0.939v-3.764c0.451-0.314,1.043-0.695,1.559-0.941L133.131,18.583"/>
	<path clip-path="url(#SVGID_2_)" fill="#04BAEE" d="M137.609,22.683c0-1.086-0.125-1.277-1.695-1.668
		c-0.916-0.226-0.928-0.338-0.928-0.941c0-0.494,0.112-0.684,0.918-0.684c0.448,0,1.053,0.066,1.515,0.157l0.065-0.773
		c-0.449-0.123-1.019-0.191-1.546-0.191c-1.434,0-1.883,0.46-1.883,1.469c0,1.132,0.125,1.412,1.48,1.748
		c1.098,0.269,1.141,0.335,1.141,0.918c0,0.582-0.145,0.737-1.008,0.737c-0.469,0-1.087-0.088-1.557-0.222l-0.123,0.738
		c0.438,0.168,1.175,0.291,1.736,0.291C137.282,24.262,137.609,23.747,137.609,22.683"/>
	<path clip-path="url(#SVGID_2_)" fill="#04BAEE" d="M140.077,18.695h-0.941v5.456h0.941V18.695z M140.077,16.465h-0.941v1.355
		h0.941V16.465z"/>
	<path clip-path="url(#SVGID_2_)" fill="#04BAEE" d="M144.595,23.332c-0.349,0.091-0.617,0.135-0.875,0.135
		c-0.504,0-0.561-0.202-0.561-0.605v-3.383h1.469l0.076-0.784h-1.545v-1.479l-0.939,0.135v1.344h-0.963v0.784h0.963v3.541
		c0,0.907,0.437,1.241,1.354,1.241c0.403,0,0.806-0.076,1.144-0.2L144.595,23.332"/>
	<path clip-path="url(#SVGID_2_)" fill="#04BAEE" d="M149.873,20.353c0-1.165-0.517-1.77-2.075-1.77c-0.582,0-1.275,0.1-1.793,0.235
		l0.103,0.75c0.427-0.089,1.108-0.18,1.637-0.18c0.884,0,1.185,0.235,1.185,0.919v0.852h-1.453c-1.098,0-1.67,0.404-1.67,1.535
		c0,0.964,0.425,1.566,1.442,1.566c0.661,0,1.29-0.178,1.772-0.514l0.058,0.403h0.795V20.353 M148.929,23.008
		c-0.414,0.269-0.938,0.446-1.41,0.446c-0.672,0-0.772-0.221-0.772-0.782c0-0.55,0.212-0.729,0.794-0.729h1.389V23.008"/>
	<path clip-path="url(#SVGID_2_)" fill="#04BAEE" d="M152.462,18.695h-0.941v5.456h0.941V18.695z M152.462,16.465h-0.941v1.355
		h0.941V16.465z"/>
	<path clip-path="url(#SVGID_2_)" fill="#04BAEE" d="M156.632,18.583c-0.54,0.224-1.1,0.56-1.504,0.874l-0.055-0.763h-0.817v5.456
		h0.94v-3.764c0.447-0.314,1.041-0.695,1.556-0.941L156.632,18.583"/>
	<path clip-path="url(#SVGID_2_)" fill="#04BAEE" d="M158.419,22.246v-0.46h3.247v-1.143c0-1.131-0.435-2.062-2.05-2.062
		c-1.625,0-2.139,0.906-2.139,2.039v1.636c0,1.231,0.547,2.005,2.16,2.005c0.684,0,1.412-0.123,1.926-0.313l-0.121-0.75
		c-0.595,0.157-1.189,0.256-1.727,0.256C158.649,23.454,158.419,23.107,158.419,22.246 M158.419,20.554
		c0-0.762,0.312-1.188,1.197-1.188c0.884,0,1.142,0.426,1.142,1.188v0.449h-2.339V20.554"/>
	<path clip-path="url(#SVGID_2_)" fill="#04BAEE" d="M66.952,33.143c0,1.097,0.513,1.67,1.59,1.67c0.716,0,1.354-0.248,1.803-0.605
		l0.079,0.493h0.794v-7.82l-0.939,0.134v2.285c-0.44-0.089-1.075-0.166-1.56-0.166c-1.276,0-1.767,0.693-1.767,1.779V33.143
		 M70.279,33.333c-0.403,0.357-1.008,0.649-1.547,0.649c-0.662,0-0.841-0.281-0.841-0.84v-2.23c0-0.661,0.258-0.952,0.885-0.952
		c0.381,0,0.999,0.068,1.503,0.168V33.333"/>
	<path clip-path="url(#SVGID_2_)" fill="#04BAEE" d="M73.677,32.796v-0.459h3.249v-1.145c0-1.132-0.437-2.06-2.049-2.06
		c-1.626,0-2.14,0.905-2.14,2.038v1.635c0,1.231,0.549,2.006,2.163,2.006c0.682,0,1.41-0.124,1.925-0.314l-0.123-0.75
		c-0.593,0.157-1.187,0.259-1.724,0.259C73.912,34.006,73.677,33.656,73.677,32.796 M73.677,31.103c0-0.762,0.314-1.188,1.2-1.188
		c0.886,0,1.141,0.426,1.141,1.188v0.449h-2.341V31.103"/>
	<polygon clip-path="url(#SVGID_2_)" fill="#04BAEE" points="82.362,34.699 83.327,34.699 83.327,28.101 85.557,28.101 
		85.557,27.237 80.134,27.237 80.134,28.101 82.362,28.101 	"/>
	<path clip-path="url(#SVGID_2_)" fill="#04BAEE" d="M86.521,32.796v-0.459h3.248v-1.145c0-1.132-0.435-2.06-2.049-2.06
		c-1.625,0-2.139,0.905-2.139,2.038v1.635c0,1.231,0.546,2.006,2.159,2.006c0.685,0,1.412-0.124,1.928-0.314l-0.123-0.75
		c-0.594,0.157-1.188,0.259-1.725,0.259C86.755,34.006,86.521,33.656,86.521,32.796 M86.521,31.103c0-0.762,0.314-1.188,1.199-1.188
		s1.143,0.426,1.143,1.188v0.449h-2.342V31.103"/>
	<path clip-path="url(#SVGID_2_)" fill="#04BAEE" d="M93.077,34.812c0.482,0,1.031-0.079,1.312-0.17l-0.089-0.784
		c-0.425,0.091-0.817,0.124-1.2,0.124c-0.941,0-1.252-0.269-1.252-1.12v-1.78c0-0.853,0.311-1.121,1.252-1.121
		c0.383,0,0.775,0.035,1.2,0.124L94.38,29.3c-0.28-0.09-0.82-0.167-1.303-0.167c-1.701,0-2.172,0.727-2.172,1.98v1.715
		C90.905,34.084,91.333,34.812,93.077,34.812"/>
	<path clip-path="url(#SVGID_2_)" fill="#04BAEE" d="M100.05,34.699v-4.179c0-0.841-0.314-1.388-1.188-1.388
		c-0.639,0-1.5,0.278-2.107,0.568V26.88l-0.939,0.134v7.686h0.939v-4.112c0.582-0.303,1.424-0.56,1.828-0.56
		c0.346,0,0.526,0.146,0.526,0.505v4.167H100.05"/>
	<path clip-path="url(#SVGID_2_)" fill="#04BAEE" d="M106.022,34.699v-4.179c0-0.841-0.313-1.388-1.187-1.388
		c-0.649,0-1.592,0.29-2.196,0.582l-0.09-0.473h-0.762v5.457h0.939v-4.123c0.584-0.303,1.425-0.549,1.826-0.549
		c0.348,0,0.527,0.146,0.527,0.505v4.167H106.022"/>
	<path clip-path="url(#SVGID_2_)" fill="#04BAEE" d="M111.919,32.761v-1.578c0-1.144-0.629-2.05-2.219-2.05
		c-1.593,0-2.218,0.906-2.218,2.05v1.578c0,1.144,0.625,2.051,2.218,2.051C111.29,34.812,111.919,33.904,111.919,32.761
		 M110.976,31.147v1.648c0,0.794-0.426,1.197-1.275,1.197c-0.852,0-1.279-0.403-1.279-1.197v-1.648c0-0.794,0.428-1.199,1.279-1.199
		C110.55,29.948,110.976,30.354,110.976,31.147"/>
	<polygon clip-path="url(#SVGID_2_)" fill="#04BAEE" points="114.368,34.699 114.368,26.88 113.429,27.014 113.429,34.699 	"/>
	<path clip-path="url(#SVGID_2_)" fill="#04BAEE" d="M120.32,32.761v-1.578c0-1.144-0.63-2.05-2.22-2.05
		c-1.592,0-2.219,0.906-2.219,2.05v1.578c0,1.144,0.627,2.051,2.219,2.051C119.69,34.812,120.32,33.904,120.32,32.761
		 M119.377,31.147v1.648c0,0.794-0.425,1.197-1.276,1.197c-0.851,0-1.277-0.403-1.277-1.197v-1.648c0-0.794,0.427-1.199,1.277-1.199
		C118.952,29.948,119.377,30.354,119.377,31.147"/>
	<path clip-path="url(#SVGID_2_)" fill="#04BAEE" d="M126.054,29.243h-1.568c-0.258-0.077-0.639-0.11-0.918-0.11
		c-1.559,0-2.129,0.683-2.129,1.87v0.246c0,0.718,0.246,1.254,0.761,1.547c-0.292,0.223-0.515,0.56-0.515,0.964
		c0,0.502,0.258,0.927,1.064,0.996c0.639,0.056,0.839,0.078,1.443,0.132c0.639,0.058,0.808,0.137,0.808,0.597
		c0,0.57-0.135,0.761-1.524,0.761c-0.547,0-1.256-0.09-1.826-0.223l-0.133,0.738c0.614,0.168,1.479,0.257,1.982,0.257
		c1.973,0,2.387-0.393,2.387-1.578c0-0.829-0.382-1.21-1.367-1.312c-0.686-0.066-0.975-0.101-1.545-0.155
		c-0.248-0.022-0.359-0.103-0.359-0.315c0-0.233,0.201-0.425,0.39-0.583c0.17,0.024,0.36,0.035,0.563,0.035
		c1.423,0,2.14-0.685,2.14-1.859v-0.246c-0.013-0.426-0.103-0.807-0.306-1.087l0.652-0.123V29.243 M124.81,31.013v0.236
		c0,0.718-0.346,1.087-1.242,1.087c-0.897,0-1.243-0.259-1.243-1.087v-0.236c0-0.807,0.334-1.107,1.243-1.107
		C124.474,29.905,124.81,30.219,124.81,31.013"/>
	<path clip-path="url(#SVGID_2_)" fill="#04BAEE" d="M128.263,29.243h-0.941V34.7h0.941V29.243z M128.263,27.014h-0.941v1.357h0.941
		V27.014z"/>
	<path clip-path="url(#SVGID_2_)" fill="#04BAEE" d="M130.718,32.796v-0.459h3.25v-1.145c0-1.132-0.438-2.06-2.052-2.06
		c-1.625,0-2.14,0.905-2.14,2.038v1.635c0,1.231,0.55,2.006,2.162,2.006c0.685,0,1.412-0.124,1.928-0.314l-0.125-0.75
		c-0.592,0.157-1.188,0.259-1.723,0.259C130.952,34.006,130.718,33.656,130.718,32.796 M130.718,31.103
		c0-0.762,0.313-1.188,1.198-1.188c0.886,0,1.142,0.426,1.142,1.188v0.449h-2.34V31.103"/>
	<path clip-path="url(#SVGID_2_)" fill="#04BAEE" d="M38.977,32.048c-1.477,6.699-8.107,10.93-14.805,9.451
		c-6.699-1.48-10.929-8.109-9.45-14.807c1.478-6.699,8.107-10.93,14.806-9.45C36.225,18.721,40.457,25.351,38.977,32.048"/>
	<path clip-path="url(#SVGID_2_)" fill="#0071BA" d="M26.891,49.135c-1.43,0-2.871-0.156-4.301-0.473l0.615-2.784
		c4.41,0.974,8.934,0.173,12.741-2.257c3.806-2.429,6.439-6.195,7.413-10.605c2.01-9.103-3.76-18.143-12.862-20.154l0.615-2.784
		c10.637,2.351,17.38,12.916,15.031,23.554c-1.138,5.153-4.214,9.555-8.663,12.395C34.266,48.076,30.613,49.135,26.891,49.135"/>
</g>
<g>
	<defs>
		<rect id="SVGID_3_" x="9.92" y="9.923" width="151.745" height="39.615"/>
	</defs>
	<clipPath id="SVGID_4_">
		<use xlink:href="#SVGID_3_"  overflow="visible"/>
	</clipPath>
	<path clip-path="url(#SVGID_4_)" fill="#0071BA" d="M26.879,44.239c-1.076,0-2.159-0.117-3.235-0.354l0.264-1.193
		c3.557,0.784,7.21,0.139,10.282-1.821c3.072-1.96,5.196-5,5.981-8.558c0.786-3.559,0.14-7.21-1.821-10.282
		c-1.96-3.071-4.999-5.195-8.557-5.981l0.263-1.192c3.877,0.855,7.189,3.17,9.324,6.517c2.136,3.347,2.841,7.326,1.984,11.203
		c-0.855,3.877-3.17,7.188-6.517,9.324C32.429,43.443,29.68,44.239,26.879,44.239"/>
	<path clip-path="url(#SVGID_4_)" fill="#FAB900" d="M23.2,45.897c-4.414-0.976-8.184-3.61-10.616-7.423
		c-2.432-3.811-3.234-8.341-2.258-12.755c0.974-4.414,3.609-8.185,7.419-10.617c3.811-2.432,8.342-3.233,12.757-2.26l-0.439,1.989
		c-3.886-0.857-7.87-0.151-11.222,1.988s-5.669,5.456-6.527,9.339c-0.858,3.883-0.152,7.868,1.987,11.221
		c2.139,3.353,5.455,5.671,9.338,6.528L23.2,45.897z"/>
</g>
<g>
	<defs>
		<rect id="SVGID_5_" width="171.587" height="59.46"/>
	</defs>
	<clipPath id="SVGID_6_">
		<use xlink:href="#SVGID_5_"  overflow="visible"/>
	</clipPath>
	<path clip-path="url(#SVGID_6_)" fill="#FFFFFF" d="M17.936,26.568h1.991v-1.994h-1.991V26.568z M21.918,26.568v3.241
		c0,1.541,0.353,2.726,1.058,3.552c0.71,0.827,1.639,1.238,2.942,1.238c1.292,0,2.031-0.423,2.802-1.27
		c0.777-0.848,1.164-2.016,1.164-3.51v-3.252v-1.99h-1.991v5.343c0,0.833-0.165,1.446-0.607,1.975
		c-0.333,0.397-0.865,0.714-1.384,0.715c-0.539,0.001-1.098-0.321-1.441-0.736c-0.42-0.51-0.55-1.122-0.55-1.903v-5.396h-2.986
		v1.989 M30.882,24.578v1.99h0.992v7.781h1.993v-7.781h1.991v-1.99H30.882z M17.936,34.326h1.991v-6.766h-1.991V34.326z"/>
</g>
</svg>
